<svg width="120" height="120" viewBox="0 0 999 999" fill="none" xmlns="http://www.w3.org/2000/svg">
  <path d="M747.5 211C886.4 211 999 323.6 999 462.5C999 601.4 886.4 714 747.5 714H434V714.023C433.668 714.009 433.335 714 433 714C420.297 714 410 724.297 410 737C410 737.335 410.009 737.668 410.023 738H410V768C410 779.046 401.046 788 390 788H251.5C112.6 788 0 675.4 0 536.5C0 397.6 112.6 285 251.5 285H386V284.977C386.332 284.991 386.665 285 387 285C399.703 285 410 274.703 410 262C410 261.665 409.991 261.332 409.977 261H410V231C410 219.954 418.954 211 430 211H747.5ZM428.999 377C417.953 377 408.999 385.954 408.999 397V427H408.977C408.99 427.308 408.998 427.617 408.999 427.928V428.074C408.959 440.743 398.678 451 386 451C385.665 451 385.332 450.991 385 450H251C203.504 451 165 489.504 165 537C165 584.496 203.504 623 251 623H389C400.046 623 409 614.046 409 603V573H409.023C409.009 572.668 409 572.335 409 572C409 559.297 419.297 549 432 549C432.335 549 432.668 549.009 433 549.023V549H747.539C795.036 549 833.539 510.496 833.539 463C833.539 415.504 795.036 377 747.539 377H428.999Z" fill="#013670"/>
</svg>
